<svg xmlns="http://www.w3.org/2000/svg" width="512" height="512" viewBox="0 0 512 512" fill="none">
  <defs>
    <linearGradient id="app-icon-gradient" x1="0%" y1="0%" x2="100%" y2="100%">
      <stop offset="0%" stop-color="#38bdf8" /> <stop offset="100%" stop-color="#0284c7" /> </linearGradient>
  </defs>

  <rect width="512" height="512" rx="112" fill="url(#app-icon-gradient)" />

  <g transform="translate(116, 116) scale(11.66)" stroke="#38bdf8" stroke-width="2" stroke-linecap="round" stroke-linejoin="round" fill="none">
    <path d="m12 3-1.912 5.813a2 2 0 0 1-1.275 1.275L3 12l5.813 1.912a2 2 0 0 1 1.275 1.275L12 21l1.912-5.813a2 2 0 0 1 1.275-1.275L21 12l-5.813-1.912a2 2 0 0 1-1.275-1.275L12 3Z" />
    <path d="M5 3v4" />
    <path d="M19 17v4" />
    <path d="M3 5h4" />
    <path d="M17 19h4" />
  </g>
</svg>
